<svg width="396" height="396" viewBox="0 0 396 396" fill="none" xmlns="http://www.w3.org/2000/svg">
<g clip-path="url(#clip0_307_15)">
<path d="M330.082 119.9L116.84 229.29L112.563 235.481C133.751 229.721 133.597 239.315 146.241 239.39C134.303 248.586 124.728 270.393 112.24 274.782C102.073 278.364 83.1351 285.452 76.4591 287.96L60.212 311.631L65.3311 319.239L335.381 196.939L333.754 123.44L330.082 119.9Z" fill="#001C18"/>
<path d="M295.83 291.069C285.796 284.183 285.743 260.275 278.225 248.644C291.015 251.217 299.89 242.575 321.05 256.207L320.302 242.871L115.126 119.394L51.0388 175.771L47.8892 181.029L320.543 341.735L325.585 336.957L324.14 311.3C318.705 307.32 303.915 296.614 295.83 291.069Z" fill="#001C18"/>
<path d="M321.059 256.206L316.706 260.393C312.259 256.821 307.005 254.392 301.404 253.317C292.514 251.784 289.247 256.089 276.975 252.755C275.849 251.92 275.072 250.696 274.795 249.321C274.518 247.946 274.762 246.517 275.478 245.311L302.185 243.398L321.059 256.206Z" fill="#001C18"/>
<path d="M295.83 291.069C285.796 284.183 285.743 260.275 278.225 248.644C291.015 251.217 299.89 242.575 321.05 256.207L320.302 242.871L103.563 115.306L51.0388 175.771L325.609 336.928L324.164 311.271C318.705 307.32 303.915 296.614 295.83 291.069Z" fill="#004B40"/>
<path d="M213.232 179.846L130.408 222.337L195.256 260.405L282.771 220.766L213.232 179.846Z" fill="#001C18"/>
<path d="M112.563 235.481L115.85 241.234C115.85 241.234 121.882 237.023 128.658 239.888C135.434 242.753 141.354 247.353 151.134 243.66C152.002 240.04 151.601 236.231 150 232.869C150 232.869 126.507 228.274 126.003 228.327C125.499 228.38 112.563 235.481 112.563 235.481Z" fill="#001C18"/>
<path d="M116.84 229.29L112.563 235.481C133.751 229.721 133.597 239.315 146.241 239.39C134.303 248.586 124.728 270.393 112.24 274.782C102.073 278.364 83.1351 285.452 76.4591 287.96L60.212 311.631L330.198 192.637L330.082 119.9L116.84 229.29Z" fill="#004B40"/>
<path d="M213.29 175.628L114.6 220.314L180.151 258.952L186.552 255.954L213.29 175.628Z" fill="#001C18"/>
<path d="M213.29 175.628L121.506 217.192L186.552 255.954L213.29 175.628Z" fill="#001C18"/>
<path d="M56.6167 173.28C56.6167 173.28 169.306 242.815 173.458 245.222C177.611 247.629 186.06 251.704 198.046 246.537C210.032 241.369 325.906 190.173 325.906 190.173L326.927 116.681L325.945 114.826L210.946 164.043L113.764 107.285L56.3917 171.139L56.6167 173.28Z" fill="#001C18"/>
<path d="M56.3917 171.139C56.3917 171.139 169.081 240.674 173.234 243.09C177.387 245.507 185.835 249.564 197.822 244.405C209.809 239.246 324.064 188.819 324.064 188.819L325.95 114.87L210.716 161.859L113.535 105.109L56.3917 171.139Z" fill="#87D1A4"/>
<path d="M118.476 103.195L59.5746 170.197L172.264 239.731C172.264 239.731 177.682 236.479 181.715 236.055C185.748 235.631 195.35 242.671 195.35 242.671L318.775 187.587L321.356 114.387L309.867 110.667L213.112 157.341L122.324 102.791L118.476 103.195Z" fill="#EFE8C5"/>
<path d="M312.044 111.297C311.676 117.327 311.227 123.348 310.769 129.37L309.276 147.413L307.597 165.475L306.696 174.512L305.701 183.506L306.301 174.5L306.981 165.486L308.465 147.444L310.144 129.382C310.739 123.301 311.342 117.3 312.044 111.297Z" fill="#FFD1A3"/>
<path d="M313.698 112.143C313.427 118.074 313.154 123.987 312.758 129.913L311.592 147.67L310.247 165.411L309.506 174.279L308.649 183.142L309.083 174.252L309.599 165.372L310.778 147.577L312.132 129.835C312.614 123.954 313.111 118.044 313.698 112.143Z" fill="#FFD1A3"/>
<path d="M315.828 112.84C315.62 118.773 315.286 124.701 315.014 130.623L314.019 148.381L312.765 166.148L312.088 175.019L311.33 183.889L311.692 174.998L312.135 166.107L313.166 148.345L314.394 130.59C314.827 124.669 315.286 118.746 315.828 112.84Z" fill="#FFD1A3"/>
<path d="M317.899 113.49C317.736 119.418 317.491 125.346 317.228 131.267L316.341 149.031L315.255 166.78L314.65 175.653L313.963 184.515L314.253 175.623L314.634 166.738L315.521 148.974L316.598 131.226C316.961 125.321 317.403 119.399 317.899 113.49Z" fill="#FFD1A3"/>
<path d="M319.942 114.205C319.83 120.2 319.628 126.195 319.404 132.147L318.654 150.111L317.719 168.095L317.189 177.094L316.571 186.101L316.791 177.136L317.099 168.16L317.894 150.191L318.829 132.208C319.13 126.131 319.488 120.182 319.942 114.205Z" fill="#FFD1A3"/>
<path d="M69.8237 166.034C69.8237 166.034 95.1597 180.425 116.233 189.487C137.307 198.549 177.601 222.269 181.719 236.01C192.446 222.613 206.038 205.329 234.412 199.271C262.785 193.212 297.913 185.818 302.487 182.457C303.647 170.012 309.932 110.598 309.932 110.598C300.388 113.476 290.686 115.8 280.875 117.56C265.75 120.169 219.449 135.105 213.156 157.337C204.454 140.992 193.232 131.905 172.586 125.034C151.939 118.163 122.324 102.791 122.324 102.791L69.8237 166.034Z" fill="#FBF9EF"/>
<path d="M181.739 236.026C192.446 222.613 206.038 205.329 234.412 199.271C262.785 193.212 297.913 185.818 302.487 182.458C303.647 170.012 309.931 110.598 309.931 110.598C300.388 113.476 290.686 115.8 280.875 117.56C265.75 120.169 219.449 135.105 213.156 157.337L181.739 236.026Z" fill="#FBF9EF"/>
<path d="M255.134 197.504C202.097 214.033 181.739 236.026 181.739 236.026C185.799 235.599 195.374 242.641 195.374 242.641L318.798 187.558C318.798 187.558 307.701 184.074 302.447 182.498C296.585 186.709 285.223 187.947 255.134 197.504Z" fill="#FBF9EF"/>
<path d="M144.909 200.254C126.396 190.288 69.8236 166.034 69.8236 166.034L59.5294 170.192L172.219 239.727C172.219 239.727 177.636 236.475 181.67 236.051C182.449 223.217 163.412 210.221 144.909 200.254Z" fill="#FBF9EF"/>
<path d="M144.909 200.254C126.396 190.288 69.8236 166.034 69.8236 166.034C69.8236 166.034 143.547 204.913 152.906 209.894C162.265 214.875 180.296 228.174 181.739 236.026C182.449 223.217 163.412 210.221 144.909 200.254Z" fill="#FCCE98"/>
<path d="M69.0844 168.786C69.0844 168.786 164.471 222.254 181.739 236.026C168.763 221.99 99.4915 182.501 69.0844 168.786Z" fill="#FCCE98"/>
<path d="M66.1744 169.092L80.0988 177.179L93.9863 185.342L121.693 201.782L149.291 218.385L163.066 226.747L176.785 235.178L162.86 227.091L148.973 218.928L121.266 202.488L93.6668 185.876L79.8934 177.522L66.1744 169.092Z" fill="#FCCE98"/>
<path d="M185.798 235.599C190.244 232.548 194.786 229.647 199.338 226.754C203.89 223.861 208.529 221.12 213.199 218.411C215.533 217.048 217.879 215.719 220.258 214.441C222.636 213.162 225.017 211.902 227.489 210.747C232.431 208.502 237.498 206.601 242.583 204.779C247.668 202.957 252.821 201.36 257.964 199.755C263.107 198.15 268.251 196.546 273.431 195.035C278.611 193.525 283.726 191.995 288.924 190.402C294.103 188.933 299.197 187.183 304.184 185.159C301.778 186.389 299.3 187.47 296.762 188.398C294.244 189.369 291.7 190.263 289.165 191.164C284.055 192.908 278.935 194.564 273.808 196.239C263.56 199.561 253.259 202.727 243.13 206.322C238.056 208.081 233.001 209.927 228.123 212.103C225.699 213.198 223.303 214.398 220.925 215.685L213.811 219.473C209.083 222.045 204.399 224.702 199.747 227.408C195.095 230.115 190.438 232.858 185.798 235.599Z" fill="#FCCE98"/>
<path d="M190.082 236.276C199.223 230.903 208.582 225.931 218.159 221.359C222.932 219.069 227.771 216.888 232.674 214.817C235.103 213.766 237.578 212.808 240.041 211.816C242.503 210.824 245.002 209.926 247.492 209.03C257.452 205.434 267.371 201.709 277.269 197.95C282.223 196.076 287.165 194.167 292.094 192.224C294.559 191.259 297.024 190.293 299.467 189.285C301.91 188.277 304.371 187.276 306.753 186.114C297.236 190.781 287.336 194.602 277.501 198.534C267.665 202.465 257.731 206.129 247.769 209.796C237.783 213.314 228.007 217.463 218.442 221.92C213.643 224.141 208.882 226.457 204.157 228.867C199.409 231.253 194.712 233.705 190.082 236.276Z" fill="#FCCE98"/>
<path d="M179.707 219.168L178.731 217.786C175.47 213.309 161.328 203.062 147.275 196.052C133.844 189.344 94.1392 169.014 93.7338 168.815L92.7842 168.289L135.048 114.179L135.853 114.604C136.191 114.756 169.62 129.575 182.795 136.32C195.97 143.064 206.909 154.568 207.02 154.69L207.77 155.694L207.661 155.938C207.511 156.293 192.3 191.275 180.002 218.564L179.707 219.168ZM94.5462 168.292C98.9469 170.512 134.977 188.975 147.635 195.308C160.293 201.642 174.632 211.465 178.971 216.759C190.658 190.795 204.85 158.201 206.232 155.015C204.748 153.49 194.576 143.237 182.421 137.012C169.926 130.616 139.173 116.92 135.808 115.449L94.5462 168.292Z" fill="#004B40"/>
<path d="M193.388 217.363L191.681 219.501L217.086 154.232L217.131 154.227C217.225 154.101 226.835 141.644 238.895 135.744C257.155 127.306 289.126 120.681 289.448 120.594L291.557 120.157L291.442 120.76L279.579 179.938L279.528 180.211L277.777 180.574C206.97 192.837 193.551 217.131 193.388 217.363ZM217.847 154.661L194.619 214.444C200.179 207.778 220.085 189.822 277.402 179.809C280.565 164.041 288.036 126.725 289.08 121.518C284.575 122.474 256.094 128.705 239.318 136.451C227.763 142.056 218.481 153.799 217.847 154.661Z" fill="#004B40"/>
</g>
<path d="M314.5 63C314.5 63 313.901 71.75 306 72.5C313.901 73.375 314.5 82 314.5 82C314.5 82 315.099 73.25 323 72.5C315.099 71.75 314.5 63 314.5 63Z" fill="#FFD08A"/>
<path d="M128.5 83C128.5 83 128.254 86.6842 125 87C128.254 87.3684 128.5 91 128.5 91C128.5 91 128.746 87.3158 132 87C128.746 86.6842 128.5 83 128.5 83Z" fill="#FFD08A"/>
<path d="M54 252C54 252 52.9437 266.737 39 268C52.9437 269.474 54 284 54 284C54 284 55.0563 269.263 69 268C55.0563 266.737 54 252 54 252Z" fill="#FFD08A"/>
<defs>
<clipPath id="clip0_307_15">
<rect width="346.197" height="346.197" fill="white" transform="translate(0 52.9589) rotate(-8.79929)"/>
</clipPath>
</defs>
</svg>
